<svg width="176" height="110" viewBox="0 0 176 110" fill="none" xmlns="http://www.w3.org/2000/svg">
<g id="Glyph">
<rect width="176" height="110" rx="40" fill="#D1C1FF"/>
<g id="Group">
<path id="Vector" fill-rule="evenodd" clip-rule="evenodd" d="M52.8587 31.4414H122.582C123.63 31.4414 124.668 31.6563 125.636 32.0737C126.604 32.4911 127.484 33.1029 128.224 33.8742C128.965 34.6455 129.553 35.5611 129.954 36.5687C130.354 37.5764 130.56 38.6563 130.56 39.7468V67.4279C130.56 68.518 130.354 69.5973 129.953 70.6044C129.552 71.6114 128.964 72.5264 128.223 73.297C127.482 74.0676 126.603 74.6788 125.635 75.0956C124.667 75.5124 123.63 75.7267 122.582 75.7263H97.5763L100.999 84.4808L85.8928 75.7263H52.8486C50.7351 75.7235 48.709 74.8481 47.2151 73.2922C45.7213 71.7364 44.8818 69.6273 44.8809 67.4279V39.7468C44.8809 37.5447 45.7213 35.4327 47.2173 33.8752C48.7133 32.3178 50.7425 31.4423 52.8587 31.4414Z" fill="#7D57A4"/>
<path id="Vector_2" d="M49.1958 38.9601C49.4596 38.6169 49.7927 38.3382 50.1714 38.1435C50.5501 37.9489 50.9652 37.8432 51.3875 37.8337C53.1656 37.7051 54.1861 38.5776 54.4491 40.4513C55.5461 48.0514 56.7206 54.503 57.9727 59.806L65.6471 44.6198C66.3417 43.249 67.2195 42.5239 68.2805 42.4443C69.8181 42.3321 70.7791 43.3508 71.1635 45.5005C71.8857 49.7516 72.9956 53.9214 74.478 57.9533C75.3996 48.7041 76.9383 42.0174 79.0941 37.8934C79.3021 37.4308 79.6274 37.0361 80.035 36.7517C80.4426 36.4673 80.917 36.304 81.4072 36.2793C82.2052 36.2111 82.9975 36.4691 83.6157 36.9986C83.9313 37.2466 84.1906 37.5637 84.3753 37.9275C84.56 38.2913 84.6656 38.6929 84.6846 39.1039C84.7411 39.7106 84.6237 40.321 84.3474 40.8583C82.9807 43.497 81.8568 47.8842 80.9756 54.0199C80.1056 59.9428 79.7842 64.5757 80.0112 67.9184C80.0909 68.7377 79.9496 69.564 79.6032 70.3044C79.4351 70.6781 79.1731 70.9977 78.8449 71.2293C78.5167 71.4609 78.1344 71.5959 77.7386 71.6202C76.8147 71.6904 75.8942 71.2377 74.9669 70.2693C71.7119 66.7956 69.1268 61.6271 67.2116 54.7638C64.9637 59.4423 63.2778 62.9417 62.1538 65.2622C60.097 69.3792 58.3346 71.4904 56.8668 71.5956C55.9136 71.6658 55.1021 70.8331 54.4323 69.0974C52.6339 64.3324 50.7052 55.1135 48.6462 41.4408C48.5648 41.0104 48.5717 40.5669 48.6664 40.1394C48.7611 39.7119 48.9415 39.31 49.1958 38.9601Z" fill="white"/>
<path id="Vector_3" d="M124.453 44.6863C123.875 43.5997 123.073 42.6591 122.106 41.9314C121.138 41.2036 120.029 40.7066 118.856 40.4757C118.231 40.3381 117.593 40.2676 116.954 40.2651C113.6 40.2651 110.86 42.0815 108.734 45.7143C106.923 48.8036 105.98 52.3592 106.013 55.9777C106.013 58.7847 106.575 61.1906 107.698 63.1953C108.276 64.283 109.078 65.2245 110.046 65.9524C111.014 66.6803 112.125 67.1766 113.299 67.4059C113.923 67.5465 114.559 67.6182 115.197 67.6199C118.585 67.6199 121.324 65.8035 123.415 62.1707C125.225 59.0593 126.169 55.4851 126.139 51.8478C126.139 49.0407 125.577 46.6535 124.453 44.6863ZM120.036 54.7952C119.557 57.1812 118.669 58.9789 117.372 60.1882C116.345 61.1497 115.403 61.5415 114.547 61.3637C113.69 61.1859 113.004 60.3999 112.487 59.0058C112.09 57.9483 111.881 56.8249 111.869 55.6899C111.866 54.7919 111.952 53.8959 112.126 53.0162C112.46 51.4596 113.088 49.9878 113.973 48.6863C115.138 46.9062 116.354 46.1588 117.622 46.4442C118.478 46.6243 119.164 47.4079 119.679 48.7951C120.074 49.8517 120.281 50.9738 120.292 52.1074C120.297 53.0102 120.211 53.9109 120.036 54.7952Z" fill="white"/>
<path id="Vector_4" d="M102.516 44.6863C101.937 43.5997 101.136 42.6591 100.168 41.9314C99.201 41.2036 98.0914 40.7066 96.9185 40.4757C96.2931 40.3381 95.6559 40.2676 95.0167 40.2651C91.6606 40.2651 88.9215 42.0815 86.7995 45.7143C84.9861 48.8026 84.0422 52.3586 84.075 55.9777C84.075 58.7847 84.637 61.1906 85.761 63.1953C86.338 64.2838 87.1394 65.2259 88.1078 65.9539C89.0761 66.6819 90.1873 67.1777 91.3616 67.4059C91.9854 67.5465 92.6217 67.6182 93.26 67.6199C96.6498 67.6199 99.39 65.8035 101.481 62.1707C103.298 59.061 104.249 55.4872 104.229 51.8478C104.229 49.0407 103.667 46.6535 102.543 44.6863H102.516ZM98.0986 54.7952C97.6198 57.1859 96.7296 58.9859 95.4281 60.1953C94.3986 61.1567 93.4567 61.5485 92.6025 61.3707C91.7483 61.1929 91.0638 60.4046 90.549 59.0058C90.1529 57.9483 89.9438 56.8249 89.932 55.6899C89.9287 54.7919 90.0146 53.8959 90.1882 53.0162C90.5249 51.4606 91.1528 49.9893 92.036 48.6863C93.1959 46.9109 94.4121 46.1658 95.6844 46.4512C96.5408 46.6313 97.2253 47.415 97.7378 48.8021C98.1337 49.8585 98.3427 50.9807 98.3549 52.1144C98.3583 53.0125 98.2725 53.9085 98.0986 54.7882V54.7952Z" fill="white"/>
</g>
</g>
</svg>
