<svg width="16" height="16" viewBox="0 0 16 16" fill="none" xmlns="http://www.w3.org/2000/svg">
<path d="M7.99972 1.80709C10.0175 1.80709 10.2557 1.8142 11.0522 1.85153C11.7882 1.88531 12.1882 2.00798 12.4548 2.11109C12.8068 2.24798 13.0593 2.41153 13.3242 2.67642C13.589 2.94131 13.7526 3.19198 13.8895 3.54576C13.9926 3.81242 14.1153 4.21242 14.1491 4.94842C14.1846 5.74487 14.1935 5.98487 14.1935 8.00087C14.1935 10.0169 14.1864 10.2569 14.1491 11.0533C14.1153 11.7893 13.9926 12.1893 13.8895 12.456C13.7526 12.808 13.589 13.0604 13.3242 13.3253C13.0593 13.5902 12.8086 13.7538 12.4548 13.8906C12.1882 13.9938 11.7882 14.1164 11.0522 14.1502C10.2557 14.1858 10.0175 14.1946 7.99972 14.1946C5.98194 14.1946 5.74372 14.1875 4.94727 14.1502C4.21127 14.1164 3.81127 13.9938 3.5446 13.8906C3.1926 13.7538 2.94016 13.5902 2.67527 13.3253C2.41038 13.0604 2.24683 12.8098 2.10994 12.456C2.00683 12.1893 1.88416 11.7893 1.85038 11.0533C1.81483 10.2569 1.80594 10.0169 1.80594 8.00087C1.80594 5.98487 1.81305 5.74487 1.85038 4.94842C1.88416 4.21242 2.00683 3.81242 2.10994 3.54576C2.24683 3.19376 2.41038 2.94131 2.67527 2.67642C2.94016 2.41153 3.19083 2.24798 3.5446 2.11109C3.81127 2.00798 4.21127 1.88531 4.94727 1.85153C5.74372 1.81598 5.98372 1.80709 7.99972 1.80709ZM7.99972 0.445312C5.94816 0.445312 5.69038 0.454201 4.88505 0.491535C4.08149 0.528868 3.53216 0.65509 3.05038 0.843535C2.55438 1.03731 2.13305 1.29509 1.71172 1.71465C1.29216 2.1342 1.0326 2.55553 0.840603 3.05331C0.653937 3.53331 0.525937 4.08265 0.488604 4.88798C0.451271 5.69331 0.442383 5.95109 0.442383 8.00265C0.442383 10.0542 0.451271 10.312 0.488604 11.1173C0.525937 11.9209 0.652159 12.4702 0.840603 12.952C1.03438 13.448 1.29216 13.8693 1.71172 14.2906C2.13127 14.7102 2.5526 14.9698 3.05038 15.1618C3.53038 15.3484 4.07971 15.4764 4.88505 15.5138C5.69038 15.5511 5.94816 15.56 7.99972 15.56C10.0513 15.56 10.3091 15.5511 11.1144 15.5138C11.9179 15.4764 12.4673 15.3502 12.9491 15.1618C13.4451 14.968 13.8664 14.7102 14.2877 14.2906C14.7073 13.8711 14.9668 13.4498 15.1588 12.952C15.3455 12.472 15.4735 11.9226 15.5108 11.1173C15.5482 10.312 15.557 10.0542 15.557 8.00265C15.557 5.95109 15.5482 5.69331 15.5108 4.88798C15.4735 4.08442 15.3473 3.53509 15.1588 3.05331C14.9651 2.55731 14.7073 2.13598 14.2877 1.71465C13.8682 1.29509 13.4468 1.03553 12.9491 0.843535C12.4691 0.656868 11.9197 0.528868 11.1144 0.491535C10.3091 0.454201 10.0513 0.445312 7.99972 0.445312Z" fill="black"/>
<path d="M8.00021 4.12109C5.85798 4.12109 4.12109 5.85798 4.12109 8.0002C4.12109 10.1424 5.85798 11.8793 8.00021 11.8793C10.1424 11.8793 11.8793 10.1424 11.8793 8.0002C11.8793 5.85798 10.1424 4.12109 8.00021 4.12109ZM8.00021 10.5193C6.60998 10.5193 5.4811 9.3922 5.4811 8.0002C5.4811 6.6082 6.60821 5.48109 8.00021 5.48109C9.39221 5.48109 10.5193 6.6082 10.5193 8.0002C10.5193 9.3922 9.39221 10.5193 8.00021 10.5193Z" fill="black"/>
<path d="M12.0317 4.87388C12.5324 4.87388 12.9383 4.46795 12.9383 3.96721C12.9383 3.46648 12.5324 3.06055 12.0317 3.06055C11.5309 3.06055 11.125 3.46648 11.125 3.96721C11.125 4.46795 11.5309 4.87388 12.0317 4.87388Z" fill="black"/>
</svg>
