<svg width="30" height="23" viewBox="0 0 30 23" fill="none" xmlns="http://www.w3.org/2000/svg">
<path d="M-0.000226974 22.6143V16.144C-0.000226974 14.2833 0.359232 12.3485 1.07815 10.3398C1.77592 8.35218 2.73801 6.44917 3.9644 4.63073C5.19079 2.83343 6.58633 1.28987 8.15104 4.57764e-05L13.4795 3.4572C12.3165 5.2122 11.3016 7.10465 10.4347 9.13454C9.56773 11.1856 9.13426 13.5009 9.13426 16.0806V22.6143H-0.000226974Z" fill="white"/>
<path d="M16.427 22.6143V16.144C16.427 14.2833 16.7865 12.3485 17.5054 10.3398C18.2032 8.35218 19.1653 6.44917 20.3916 4.63073C21.618 2.83343 23.0136 1.28987 24.5783 4.57764e-05L29.9067 3.4572C28.7438 5.2122 27.7288 7.10465 26.8619 9.13454C25.995 11.1856 25.5615 13.5009 25.5615 16.0806V22.6143H16.427Z" fill="white"/>
</svg>
