<svg width="30" height="23" viewBox="0 0 30 23" fill="none" xmlns="http://www.w3.org/2000/svg">
<path d="M29.907 0V6.47027C29.907 8.331 29.5475 10.2657 28.8286 12.2745C28.1308 14.2621 27.1687 16.1651 25.9423 17.9835C24.716 19.7808 23.3204 21.3244 21.7557 22.6142L16.4272 19.1571C17.5902 17.4021 18.6051 15.5096 19.4721 13.4797C20.339 11.4287 20.7725 9.11335 20.7725 6.5337V0H29.907Z" fill="white"/>
<path d="M13.4797 0V6.47027C13.4797 8.331 13.1203 10.2657 12.4013 12.2745C11.7036 14.2621 10.7415 16.1651 9.5151 17.9835C8.28871 19.7808 6.89316 21.3244 5.32845 22.6142L0 19.1571C1.16296 17.4021 2.1779 15.5096 3.04483 13.4797C3.91176 11.4287 4.34523 9.11335 4.34523 6.5337V0H13.4797Z" fill="white"/>
</svg>
