<svg width="16" height="12" viewBox="0 0 16 12" fill="none" xmlns="http://www.w3.org/2000/svg">
<path d="M15.6658 2.14777C15.4827 1.45977 14.9404 0.91755 14.2507 0.732661C13.0027 0.398438 8 0.398438 8 0.398438C8 0.398438 2.99733 0.398438 1.74933 0.732661C1.06133 0.91755 0.519112 1.458 0.334223 2.14777C8.68903e-07 3.39577 0 5.99844 0 5.99844C0 5.99844 8.68903e-07 8.60111 0.334223 9.84911C0.517334 10.5371 1.05956 11.0793 1.74933 11.2642C2.99733 11.5984 8 11.5984 8 11.5984C8 11.5984 13.0027 11.5984 14.2507 11.2642C14.9387 11.0793 15.4809 10.5389 15.6658 9.84911C16 8.60111 16 5.99844 16 5.99844C16 5.99844 16 3.39577 15.6658 2.14777ZM6.4 8.40022V3.60022L10.5564 6.00022L6.4 8.40022Z" fill="black"/>
</svg>
