<svg width="40" height="13" viewBox="0 0 40 13" fill="none" xmlns="http://www.w3.org/2000/svg">
<path fill-rule="evenodd" clip-rule="evenodd" d="M0.659207 1.32742C0.837446 0.972552 1.14913 0.702848 1.52592 0.577439C1.90271 0.45203 2.31386 0.48115 2.66921 0.658416L20.0002 9.31942L37.3282 0.655416C37.5045 0.565359 37.6969 0.511088 37.8942 0.495731C38.0916 0.480375 38.29 0.504236 38.4781 0.565941C38.6662 0.627645 38.8403 0.725971 38.9902 0.855252C39.1401 0.984532 39.2629 1.14221 39.3516 1.31919C39.4403 1.49617 39.4931 1.68896 39.5069 1.88644C39.5208 2.08391 39.4954 2.28217 39.4322 2.46979C39.369 2.6574 39.2694 2.83066 39.1389 2.97957C39.0085 3.12848 38.8499 3.2501 38.6722 3.33742L20.6722 12.3374C20.4636 12.4419 20.2335 12.4964 20.0002 12.4964C19.7669 12.4964 19.5368 12.4419 19.3282 12.3374L1.32821 3.33742C0.973342 3.15918 0.703638 2.84749 0.578229 2.4707C0.45282 2.09391 0.481941 1.68277 0.659207 1.32742Z" fill="white"/>
</svg>
