<svg width="14" height="16" viewBox="0 0 14 16" fill="none" xmlns="http://www.w3.org/2000/svg">
<path d="M13.7236 4.03384C13.7236 3.96451 13.7218 3.96095 13.6489 3.96273C13.4729 3.96273 13.2987 3.94317 13.1262 3.91651C12.4987 3.82229 10.4613 2.75384 10.1165 1.00629C10.1093 0.972508 10.0329 0.538728 10.0329 0.353839C10.0329 0.272061 10.0329 0.270286 9.95112 0.270286C9.93157 0.270286 9.91379 0.270286 9.89423 0.270286C9.09779 0.270286 8.29957 0.270286 7.50312 0.270286C7.34312 0.270286 7.36446 0.250729 7.36446 0.410729C7.36446 3.86673 7.36446 7.32273 7.36446 10.7787C7.36446 10.9085 7.3609 11.0365 7.33779 11.1627C7.2169 11.8312 6.87557 12.3556 6.29601 12.713C5.79468 13.0223 5.2489 13.1112 4.66935 12.9956C4.48623 12.9601 4.31557 12.8907 4.1449 12.8232C4.13068 12.8107 4.11646 12.7983 4.10401 12.7858C4.04712 12.7378 3.98312 12.6969 3.9209 12.6543C3.18312 12.1441 2.8329 11.4347 2.93957 10.5476C3.04801 9.64806 3.56535 9.03651 4.41868 8.72184C4.6729 8.62762 4.94135 8.58851 5.21335 8.60451C5.38935 8.6134 5.56357 8.63651 5.73246 8.68451C5.79112 8.70051 5.82312 8.68095 5.82668 8.61873C5.82668 8.5974 5.82668 8.57429 5.82668 8.55295C5.82668 7.93251 5.80357 6.57784 5.80001 6.57428C5.80001 6.39651 5.80001 6.21695 5.80535 6.03917C5.80535 5.98762 5.78046 5.97873 5.73779 5.97339C5.41601 5.93606 5.09423 5.92717 4.77068 5.95206C4.32446 5.98406 3.89068 6.07651 3.46935 6.22762C2.79735 6.4694 2.2089 6.84273 1.70046 7.34051C1.26312 7.76895 0.920013 8.26317 0.669346 8.8214C0.427568 9.35473 0.29068 9.91473 0.251568 10.4978C0.235568 10.7503 0.237346 11.0045 0.262235 11.2587C0.294235 11.6089 0.361791 11.9521 0.468457 12.2881C0.774235 13.2516 1.33246 14.041 2.12357 14.6685C2.20357 14.7325 2.28179 14.8018 2.37779 14.8427C2.41868 14.8783 2.45779 14.9138 2.49868 14.9494C2.62668 15.0454 2.76357 15.129 2.90757 15.1983C3.7929 15.6356 4.72623 15.8134 5.70935 15.6943C6.98579 15.5378 8.0489 14.9725 8.88446 13.9983C9.67201 13.0809 10.0542 12.0054 10.0613 10.8018C10.072 9.08095 10.0631 7.36006 10.0649 5.63739C10.0649 5.59651 10.0418 5.53784 10.0862 5.51651C10.1218 5.50051 10.1573 5.54673 10.1911 5.56984C10.8311 5.99117 11.5227 6.29517 12.2711 6.46584C12.7067 6.5654 13.1458 6.62584 13.5938 6.62584C13.7342 6.62584 13.7538 6.61873 13.7538 6.47829C13.7538 5.86673 13.7218 4.19562 13.7236 4.03384Z" fill="black"/>
</svg>
