<svg width="166" height="38" viewBox="0 0 166 38" fill="none" xmlns="http://www.w3.org/2000/svg">
    <g id="Group 335">
        <g id="Group">
            <path id="Vector"
                d="M12.4755 37.5645C10.0817 37.5645 7.96406 37.0581 6.07662 36.0453C4.18919 34.9865 2.71607 33.6055 1.61123 31.8101C0.55242 29.9687 0 27.9431 0 25.6414V6.95117H5.66231V25.2271C5.66231 26.5621 5.98455 27.805 6.58301 28.8638C7.2275 29.9227 8.05613 30.7513 9.0689 31.3497C10.0817 31.9482 11.2325 32.3165 12.4295 32.3165C13.7645 32.3165 14.9614 31.9942 16.0202 31.3497C17.079 30.7052 17.9076 29.8766 18.5061 28.8638C19.1506 27.805 19.4728 26.6081 19.4728 25.2271V6.95117H24.905V25.6414C24.905 27.8971 24.3525 29.9687 23.2477 31.7641C22.1889 33.5594 20.7158 34.9865 18.8283 35.9993C17.033 37.0581 14.8693 37.5645 12.4755 37.5645Z"
                fill="#F2F2F2" />
        </g>
        <g id="Group_2">
            <path id="Vector_2"
                d="M29.0488 37.2891V6.99805H41.6164C43.3657 6.99805 44.8849 7.41236 46.2659 8.24099C47.693 9.06962 48.7979 10.2205 49.6265 11.6476C50.4551 13.0747 50.8694 14.6859 50.8694 16.4813C50.8694 18.2766 50.4551 19.9339 49.6265 21.407C48.7979 22.8341 47.647 23.985 46.2659 24.8596C44.8849 25.7343 43.3197 26.1486 41.6164 26.1486H34.7111V37.2891H29.0488ZM34.7111 21.0387H41.2941C42.0307 21.0387 42.6752 20.8546 43.2276 20.4403C43.8261 20.026 44.2864 19.5196 44.6547 18.8291C45.023 18.1846 45.2071 17.402 45.2071 16.5733C45.2071 15.7447 45.023 15.0081 44.6547 14.3637C44.2864 13.7192 43.8261 13.1667 43.2276 12.7985C42.6292 12.3841 41.9847 12.2 41.2941 12.2H34.7111V21.0387Z"
                fill="#F2F2F2" />
        </g>
        <g id="Group_3">
            <path id="Vector_3"
                d="M62.1462 37.2881L52.709 6.99707H58.6015L63.9415 24.8587C64.1257 25.4111 64.2638 26.0095 64.4019 26.654C64.54 27.2985 64.6781 27.989 64.7702 28.6335C64.9083 29.278 65.0003 29.8765 65.0924 30.4289C65.1845 30.9813 65.2765 31.4417 65.3686 31.81L64.2177 31.7639C64.586 30.4289 64.8162 29.3241 65.0464 28.4954C65.2305 27.6668 65.4147 26.9763 65.5528 26.4239C65.7369 25.8254 65.921 25.319 66.0591 24.8126L71.169 11.7387H75.9567L80.9285 24.8126C81.2047 25.6413 81.4809 26.3778 81.7111 27.1604C81.9412 27.897 82.1254 28.5875 82.2635 29.3241C82.4476 30.0146 82.5857 30.7511 82.7238 31.4877L81.665 31.7179C81.7571 31.0274 81.8492 30.4749 81.9412 30.0146C81.9873 29.6003 82.0793 29.186 82.1254 28.8637C82.1714 28.4954 82.2635 28.1732 82.3095 27.8509C82.3555 27.4827 82.4476 27.1144 82.5857 26.654C82.7238 26.1476 82.908 25.5492 83.0921 24.8126L88.4322 7.04311H94.2786L84.7954 37.2881H80.7443L73.0565 18.8741L73.5629 19.0582L66.2433 37.2881H62.1462Z"
                fill="#F2F2F2" />
        </g>
        <g id="Group_4">
            <path id="Vector_4"
                d="M138.936 37.2891V6.99805H151.089C153.298 6.99805 155.278 7.36633 157.027 8.05685C158.823 8.79341 160.342 9.80618 161.631 11.1872C162.92 12.5223 163.887 14.1335 164.577 15.9749C165.268 17.8163 165.636 19.8879 165.636 22.0975C165.636 24.3072 165.268 26.4248 164.577 28.2662C163.933 30.1076 162.966 31.7189 161.677 33.0539C160.388 34.3889 158.869 35.4017 157.073 36.1382C155.278 36.8748 153.298 37.197 151.089 37.197H138.936V37.2891ZM144.552 32.9158L144.138 32.0871H150.905C152.332 32.0871 153.575 31.857 154.68 31.3966C155.784 30.9363 156.751 30.2918 157.534 29.4171C158.316 28.5424 158.915 27.5297 159.329 26.2867C159.743 25.0438 159.928 23.6627 159.928 22.1436C159.928 20.6244 159.743 19.2434 159.329 18.0465C158.915 16.8035 158.316 15.7447 157.534 14.87C156.751 13.9954 155.83 13.3509 154.726 12.8905C153.621 12.4302 152.378 12.2 150.951 12.2H144.091L144.644 11.4634V32.9158H144.552Z"
                fill="#F2F2F2" />
        </g>
        <g id="Group_5">
            <path id="Vector_5" fill-rule="evenodd" clip-rule="evenodd" d="M110.3 29.002V37.2883H104.775V29.002H110.3Z"
                fill="#F2F2F2" />
        </g>
        <g id="Group_6">
            <path id="Vector_6" fill-rule="evenodd" clip-rule="evenodd"
                d="M125.587 22.4648V37.2881H120.062V22.4648H125.587Z" fill="#F2F2F2" />
        </g>
        <path id="Vector_7" fill-rule="evenodd" clip-rule="evenodd"
            d="M122.822 0C117.896 0 113.615 3.08435 111.865 7.41164C110.53 6.85922 109.057 6.58301 107.492 6.58301C100.955 6.58301 95.707 11.877 95.707 18.368C95.707 24.905 101.001 30.1529 107.492 30.1529C112.464 30.1529 116.699 27.1146 118.448 22.7413C119.783 23.2937 121.256 23.5699 122.776 23.5699C129.267 23.5699 134.561 18.2759 134.561 11.785C134.561 5.29403 129.313 0 122.822 0ZM107.538 24.6287C104.085 24.6287 101.277 21.8206 101.277 18.368C101.277 14.9154 104.085 12.1072 107.538 12.1072C108.873 12.1072 110.116 12.5215 111.129 13.2121C111.405 15.5138 112.326 17.6314 113.753 19.2887C113.246 22.327 110.668 24.6287 107.538 24.6287ZM122.822 18.0918C119.369 18.0918 116.561 15.2836 116.561 11.831C116.561 8.37838 119.369 5.5242 122.822 5.5242C126.274 5.5242 129.082 8.33234 129.082 11.785C129.082 15.2376 126.274 18.0918 122.822 18.0918Z"
            fill="#F2F2F2" />
    </g>
</svg>
